<mxfile host="app.diagrams.net" modified="2023-05-15T17:07:36.333Z" agent="Mozilla/5.0 (Windows NT 10.0; Win64; x64) AppleWebKit/537.36 (KHTML, like Gecko) Chrome/113.0.0.0 Safari/537.36" etag="nT58W1qqrbnFGvRXyZdf" version="21.2.0" type="device">
  <diagram name="Página-1" id="YbSqRQGJVf4fGiYGQikj">
    <mxGraphModel dx="1961" dy="533" grid="1" gridSize="10" guides="1" tooltips="1" connect="1" arrows="1" fold="1" page="1" pageScale="1" pageWidth="827" pageHeight="1169" math="0" shadow="0">
      <root>
        <mxCell id="0" />
        <mxCell id="1" parent="0" />
        <mxCell id="usUIAqMhjjoGzWB_h6iD-5" style="edgeStyle=orthogonalEdgeStyle;rounded=0;orthogonalLoop=1;jettySize=auto;html=1;exitX=0.5;exitY=1;exitDx=0;exitDy=0;entryX=0.5;entryY=0;entryDx=0;entryDy=0;endArrow=none;endFill=0;fillColor=#dae8fc;strokeColor=#6c8ebf;" edge="1" parent="1" source="usUIAqMhjjoGzWB_h6iD-1" target="usUIAqMhjjoGzWB_h6iD-3">
          <mxGeometry relative="1" as="geometry" />
        </mxCell>
        <mxCell id="usUIAqMhjjoGzWB_h6iD-6" style="edgeStyle=orthogonalEdgeStyle;rounded=0;orthogonalLoop=1;jettySize=auto;html=1;exitX=0.5;exitY=1;exitDx=0;exitDy=0;entryX=0.5;entryY=0;entryDx=0;entryDy=0;endArrow=none;endFill=0;fillColor=#dae8fc;strokeColor=#6c8ebf;" edge="1" parent="1" source="usUIAqMhjjoGzWB_h6iD-1" target="usUIAqMhjjoGzWB_h6iD-2">
          <mxGeometry relative="1" as="geometry" />
        </mxCell>
        <mxCell id="usUIAqMhjjoGzWB_h6iD-7" style="edgeStyle=orthogonalEdgeStyle;rounded=0;orthogonalLoop=1;jettySize=auto;html=1;exitX=0.5;exitY=1;exitDx=0;exitDy=0;entryX=0.5;entryY=0;entryDx=0;entryDy=0;endArrow=none;endFill=0;fillColor=#dae8fc;strokeColor=#6c8ebf;" edge="1" parent="1" source="usUIAqMhjjoGzWB_h6iD-1" target="usUIAqMhjjoGzWB_h6iD-4">
          <mxGeometry relative="1" as="geometry" />
        </mxCell>
        <mxCell id="usUIAqMhjjoGzWB_h6iD-1" value="Hear Me UP" style="rounded=1;whiteSpace=wrap;html=1;fillColor=none;strokeColor=#6c8ebf;" vertex="1" parent="1">
          <mxGeometry x="310" y="130" width="120" height="60" as="geometry" />
        </mxCell>
        <mxCell id="usUIAqMhjjoGzWB_h6iD-10" style="edgeStyle=orthogonalEdgeStyle;rounded=0;orthogonalLoop=1;jettySize=auto;html=1;exitX=0.5;exitY=1;exitDx=0;exitDy=0;entryX=0.5;entryY=0;entryDx=0;entryDy=0;endArrow=none;endFill=0;fillColor=#dae8fc;strokeColor=#6c8ebf;" edge="1" parent="1" source="usUIAqMhjjoGzWB_h6iD-2" target="usUIAqMhjjoGzWB_h6iD-8">
          <mxGeometry relative="1" as="geometry" />
        </mxCell>
        <mxCell id="usUIAqMhjjoGzWB_h6iD-11" style="edgeStyle=orthogonalEdgeStyle;rounded=0;orthogonalLoop=1;jettySize=auto;html=1;exitX=0.5;exitY=1;exitDx=0;exitDy=0;endArrow=none;endFill=0;fillColor=#dae8fc;strokeColor=#6c8ebf;" edge="1" parent="1" source="usUIAqMhjjoGzWB_h6iD-2" target="usUIAqMhjjoGzWB_h6iD-9">
          <mxGeometry relative="1" as="geometry" />
        </mxCell>
        <mxCell id="usUIAqMhjjoGzWB_h6iD-15" style="edgeStyle=orthogonalEdgeStyle;rounded=0;orthogonalLoop=1;jettySize=auto;html=1;exitX=0.5;exitY=1;exitDx=0;exitDy=0;entryX=0.5;entryY=0;entryDx=0;entryDy=0;fillColor=#dae8fc;strokeColor=#6c8ebf;endArrow=none;endFill=0;" edge="1" parent="1" source="usUIAqMhjjoGzWB_h6iD-2" target="usUIAqMhjjoGzWB_h6iD-14">
          <mxGeometry relative="1" as="geometry" />
        </mxCell>
        <mxCell id="usUIAqMhjjoGzWB_h6iD-2" value="Aálisis y Diseño&amp;nbsp;" style="rounded=1;whiteSpace=wrap;html=1;fillColor=none;strokeColor=#6c8ebf;" vertex="1" parent="1">
          <mxGeometry x="-130" y="250" width="120" height="60" as="geometry" />
        </mxCell>
        <mxCell id="usUIAqMhjjoGzWB_h6iD-21" style="edgeStyle=orthogonalEdgeStyle;rounded=0;orthogonalLoop=1;jettySize=auto;html=1;exitX=0.5;exitY=1;exitDx=0;exitDy=0;fillColor=#dae8fc;strokeColor=#6c8ebf;endArrow=none;endFill=0;" edge="1" parent="1" source="usUIAqMhjjoGzWB_h6iD-3" target="usUIAqMhjjoGzWB_h6iD-16">
          <mxGeometry relative="1" as="geometry" />
        </mxCell>
        <mxCell id="usUIAqMhjjoGzWB_h6iD-22" style="edgeStyle=orthogonalEdgeStyle;rounded=0;orthogonalLoop=1;jettySize=auto;html=1;exitX=0.5;exitY=1;exitDx=0;exitDy=0;fillColor=#dae8fc;strokeColor=#6c8ebf;endArrow=none;endFill=0;" edge="1" parent="1" source="usUIAqMhjjoGzWB_h6iD-3" target="usUIAqMhjjoGzWB_h6iD-17">
          <mxGeometry relative="1" as="geometry" />
        </mxCell>
        <mxCell id="usUIAqMhjjoGzWB_h6iD-23" style="edgeStyle=orthogonalEdgeStyle;rounded=0;orthogonalLoop=1;jettySize=auto;html=1;exitX=0.5;exitY=1;exitDx=0;exitDy=0;fillColor=#dae8fc;strokeColor=#6c8ebf;endArrow=none;endFill=0;" edge="1" parent="1" source="usUIAqMhjjoGzWB_h6iD-3" target="usUIAqMhjjoGzWB_h6iD-19">
          <mxGeometry relative="1" as="geometry" />
        </mxCell>
        <mxCell id="usUIAqMhjjoGzWB_h6iD-3" value="Desarrollo&amp;nbsp;" style="rounded=1;whiteSpace=wrap;html=1;fillColor=none;strokeColor=#6c8ebf;" vertex="1" parent="1">
          <mxGeometry x="310" y="250" width="120" height="60" as="geometry" />
        </mxCell>
        <mxCell id="usUIAqMhjjoGzWB_h6iD-13" style="edgeStyle=orthogonalEdgeStyle;rounded=0;orthogonalLoop=1;jettySize=auto;html=1;exitX=0.5;exitY=1;exitDx=0;exitDy=0;entryX=0.5;entryY=0;entryDx=0;entryDy=0;fillColor=#dae8fc;strokeColor=#6c8ebf;endArrow=none;endFill=0;" edge="1" parent="1" source="usUIAqMhjjoGzWB_h6iD-4" target="usUIAqMhjjoGzWB_h6iD-12">
          <mxGeometry relative="1" as="geometry" />
        </mxCell>
        <mxCell id="usUIAqMhjjoGzWB_h6iD-20" style="edgeStyle=orthogonalEdgeStyle;rounded=0;orthogonalLoop=1;jettySize=auto;html=1;exitX=0.5;exitY=1;exitDx=0;exitDy=0;entryX=0.5;entryY=0;entryDx=0;entryDy=0;fillColor=#dae8fc;strokeColor=#6c8ebf;endArrow=none;endFill=0;" edge="1" parent="1" source="usUIAqMhjjoGzWB_h6iD-4" target="usUIAqMhjjoGzWB_h6iD-18">
          <mxGeometry relative="1" as="geometry" />
        </mxCell>
        <mxCell id="usUIAqMhjjoGzWB_h6iD-4" value="Gestión del proyecto" style="rounded=1;whiteSpace=wrap;html=1;fillColor=none;strokeColor=#6c8ebf;" vertex="1" parent="1">
          <mxGeometry x="700" y="250" width="120" height="60" as="geometry" />
        </mxCell>
        <mxCell id="usUIAqMhjjoGzWB_h6iD-8" value="Requisitos de usuario" style="rounded=1;whiteSpace=wrap;html=1;fillColor=none;strokeColor=#6c8ebf;" vertex="1" parent="1">
          <mxGeometry x="-270" y="360" width="120" height="60" as="geometry" />
        </mxCell>
        <mxCell id="usUIAqMhjjoGzWB_h6iD-9" value="Diagramas" style="rounded=1;whiteSpace=wrap;html=1;fillColor=none;strokeColor=#6c8ebf;" vertex="1" parent="1">
          <mxGeometry x="10" y="360" width="120" height="60" as="geometry" />
        </mxCell>
        <mxCell id="usUIAqMhjjoGzWB_h6iD-12" value="Plan de desarrollo del proyecto" style="rounded=1;whiteSpace=wrap;html=1;fillColor=none;strokeColor=#6c8ebf;" vertex="1" parent="1">
          <mxGeometry x="777" y="360" width="120" height="60" as="geometry" />
        </mxCell>
        <mxCell id="usUIAqMhjjoGzWB_h6iD-14" value="Modelo de datos" style="rounded=1;whiteSpace=wrap;html=1;fillColor=none;strokeColor=#6c8ebf;" vertex="1" parent="1">
          <mxGeometry x="-130" y="360" width="120" height="60" as="geometry" />
        </mxCell>
        <mxCell id="usUIAqMhjjoGzWB_h6iD-16" value="Plantilla" style="rounded=1;whiteSpace=wrap;html=1;fillColor=none;strokeColor=#6c8ebf;" vertex="1" parent="1">
          <mxGeometry x="180" y="360" width="120" height="60" as="geometry" />
        </mxCell>
        <mxCell id="usUIAqMhjjoGzWB_h6iD-17" value="Controladores y configuraciones" style="rounded=1;whiteSpace=wrap;html=1;fillColor=none;strokeColor=#6c8ebf;" vertex="1" parent="1">
          <mxGeometry x="310" y="360" width="120" height="60" as="geometry" />
        </mxCell>
        <mxCell id="usUIAqMhjjoGzWB_h6iD-18" value="Documentación" style="rounded=1;whiteSpace=wrap;html=1;fillColor=none;strokeColor=#6c8ebf;" vertex="1" parent="1">
          <mxGeometry x="620" y="360" width="120" height="60" as="geometry" />
        </mxCell>
        <mxCell id="usUIAqMhjjoGzWB_h6iD-19" value="Pruebas" style="rounded=1;whiteSpace=wrap;html=1;fillColor=none;strokeColor=#6c8ebf;" vertex="1" parent="1">
          <mxGeometry x="440" y="360" width="120" height="60" as="geometry" />
        </mxCell>
      </root>
    </mxGraphModel>
  </diagram>
</mxfile>
